<svg width="28" height="28" viewBox="0 0 28 28" fill="none" xmlns="http://www.w3.org/2000/svg">
<path d="M23.278 9.23953C23.2923 9.44523 23.2923 9.65093 23.2923 9.85853C23.2923 16.1841 18.4768 23.4794 9.67143 23.4794V23.4756C7.07031 23.4794 4.52322 22.7343 2.3335 21.3294C2.71172 21.375 3.09184 21.3977 3.47291 21.3986C5.62851 21.4005 7.72249 20.6773 9.41834 19.3454C7.36986 19.3066 5.57353 17.9709 4.946 16.021C5.66358 16.1594 6.40297 16.131 7.10728 15.9386C4.87395 15.4873 3.26721 13.5251 3.26721 11.2463C3.26721 11.2254 3.26721 11.2055 3.26721 11.1856C3.93266 11.5563 4.67773 11.762 5.43987 11.7847C3.33641 10.3789 2.68802 7.58065 3.95825 5.39282C6.38875 8.38355 9.97477 10.2017 13.8243 10.3941C13.4385 8.73144 13.9656 6.98914 15.2093 5.82034C17.1373 4.0079 20.1698 4.10079 21.9822 6.02794C23.0543 5.81655 24.0819 5.42316 25.0222 4.86578C24.6649 5.97391 23.9169 6.9152 22.9178 7.51335C23.8667 7.40149 24.7938 7.14745 25.6668 6.75974C25.0241 7.72284 24.2146 8.56176 23.278 9.23953Z" fill="#5700FF"/>
</svg>
